<svg width="47" height="46" fill="none" xmlns="http://www.w3.org/2000/svg"><path d="M13.21 7.654a.76.76 0 00.226-1.08.831.831 0 00-1.124-.217c-3.95 2.521-6.86 6.288-8.226 10.65a.752.752 0 00.063.594.83.83 0 00.713.409.807.807 0 00.776-.556c1.258-4.014 3.936-7.48 7.571-9.8zm2.997-2.205c0 .43-.363.779-.81.779-.448 0-.811-.349-.811-.779 0-.43.363-.779.81-.779.448 0 .81.349.81.779z" fill="#fff"/><path d="M46.516 19.933a.844.844 0 00-.72-.06 5.742 5.742 0 01-2.037.365 5.798 5.798 0 01-4.01-1.597 5.348 5.348 0 01-1.663-3.851 4.721 4.721 0 01.049-.697.754.754 0 00-.165-.594.817.817 0 00-.562-.294c-2.213-.197-4.212-1.353-5.428-3.14a6.765 6.765 0 01-.816-6.035.755.755 0 00-.156-.758.83.83 0 00-.76-.254 5.899 5.899 0 01-3.425-.399A5.608 5.608 0 0124.268.391a.931.931 0 00-.768-.39C17.268 0 11.29 2.379 6.883 6.61 2.476 10.846 0 16.588 0 22.575c0 5.986 2.476 11.728 6.883 15.961 4.407 4.233 10.384 6.612 16.617 6.612 6.233 0 12.21-2.379 16.617-6.612C44.524 34.302 47 28.56 47 22.574c0-.694-.034-1.385-.101-2.052a.776.776 0 00-.383-.589zM23.5 43.59c-5.771.003-11.31-2.185-15.41-6.087-4.1-3.902-6.43-9.201-6.48-14.745-.051-5.544 2.18-10.883 6.209-14.853 4.029-3.97 9.527-6.25 15.297-6.345 1.38 1.987 3.72 3.16 6.206 3.11a8.294 8.294 0 001.42 6.412c1.34 1.872 3.4 3.156 5.725 3.57l-.001.137c.001 2.128 1.008 4.139 2.737 5.469a7.526 7.526 0 006.154 1.368c.014.313.023.63.023.947-.007 5.572-2.314 10.913-6.416 14.854-4.102 3.94-9.663 6.157-15.464 6.163z" fill="#fff"/><path d="M20.259 32.692a3.31 3.31 0 00-2.292.912 3.054 3.054 0 00-.95 2.201c0 .826.342 1.618.95 2.202a3.312 3.312 0 002.292.912 3.31 3.31 0 002.292-.912c.608-.584.95-1.376.95-2.202a3.054 3.054 0 00-.951-2.2 3.312 3.312 0 00-2.291-.913zm0 4.67c-.43 0-.842-.164-1.146-.456a1.527 1.527 0 01-.475-1.1c0-.413.171-.81.475-1.101a1.655 1.655 0 011.146-.456c.43 0 .842.164 1.146.456.304.291.475.688.475 1.1 0 .413-.172.809-.476 1.1a1.657 1.657 0 01-1.145.457zM32.413 24.13c-2.03 0-3.241 1.454-3.241 3.892 0 2.324 1.003 4.67 3.241 4.67 2.282 0 4.052-2.51 4.052-4.67a3.821 3.821 0 00-1.188-2.751 4.143 4.143 0 00-2.864-1.141zm0 7.005c-1.19 0-1.62-1.862-1.62-3.114 0-2.335 1.22-2.335 1.62-2.335a2.487 2.487 0 011.719.685c.455.438.712 1.031.712 1.65 0 1.36-1.179 3.114-2.43 3.114zM20.337 16.116c.206 0 .41-.02.611-.062a4.988 4.988 0 002.413-1.399 8.622 8.622 0 001.888-2.636c.76-1.774.098-2.785-.365-3.229a3.812 3.812 0 00-3.516-.666 6.873 6.873 0 00-3.163 1.578 3.821 3.821 0 00-1.184 2.752c0 1.031.426 2.021 1.184 2.752a3.03 3.03 0 002.132.91zm-.986-5.313a5.222 5.222 0 012.37-1.159c.285-.063.576-.096.869-.099.415-.03.826.093 1.148.346.315.303.319.82.012 1.535a7.16 7.16 0 01-1.534 2.129c-.428.462-.981.8-1.598.976a1.34 1.34 0 01-1.267-.425 2.291 2.291 0 01-.711-1.652c0-.619.255-1.213.71-1.65v-.001zm-8.817 8.657A4.14 4.14 0 007.67 20.6a3.817 3.817 0 00-1.187 2.751c0 1.033.427 2.022 1.187 2.753.76.73 1.79 1.14 2.865 1.14a4.14 4.14 0 002.865-1.14 3.817 3.817 0 001.187-2.753 3.821 3.821 0 00-1.188-2.75 4.143 4.143 0 00-2.864-1.142zm0 6.226a2.483 2.483 0 01-1.719-.683 2.29 2.29 0 01-.712-1.652c0-.619.256-1.213.712-1.65a2.483 2.483 0 011.72-.685c.644 0 1.262.246 1.718.684a2.29 2.29 0 01.712 1.651c0 .62-.257 1.213-.713 1.651a2.487 2.487 0 01-1.718.685zM46.446 9.38l-2.43-.778a.835.835 0 00-.83.188l-3.242 3.114a.761.761 0 00.171 1.226l5.673 3.113c.25.138.559.137.808-.002a.773.773 0 00.404-.673v-5.45a.782.782 0 00-.554-.738zm-1.067 4.846l-3.539-1.942 2.137-2.053 1.402.449v3.546zM41.328 4.67V.778a.765.765 0 00-.287-.594.832.832 0 00-.657-.173l-4.862.778a.788.788 0 00-.677.768v4.67c0 .25.125.485.336.631a.839.839 0 00.73.107l4.863-1.556a.782.782 0 00.553-.739zm-1.621-.56l-3.242 1.037v-2.93l3.242-.52V4.11zm-2.431 5.23c0 .431-.363.78-.81.78-.448 0-.81-.349-.81-.78 0-.43.362-.778.81-.778.447 0 .81.349.81.779zm-2.432 10.898c0 .43-.363.78-.81.78-.447 0-.81-.35-.81-.78 0-.43.363-.779.81-.779.447 0 .81.35.81.78zm-8.102 0c0 .43-.363.78-.81.78-.448 0-.81-.35-.81-.78 0-.43.362-.779.81-.779.447 0 .81.35.81.78zM11.344 14.79c0 .43-.362.778-.81.778-.448 0-.81-.348-.81-.778 0-.43.362-.78.81-.78.447 0 .81.35.81.78zM21.88 26.465c0 .43-.363.78-.81.78-.448 0-.811-.35-.811-.78 0-.43.363-.779.81-.779.448 0 .81.35.81.78zm-8.915 7.784c0 .43-.362.779-.81.779-.447 0-.81-.349-.81-.779 0-.43.363-.779.81-.779.448 0 .81.349.81.779zm19.449 2.335c0 .43-.363.779-.81.779-.448 0-.811-.349-.811-.779 0-.43.363-.779.81-.779.448 0 .81.35.81.78z" fill="#fff"/></svg>