<svg width="108" height="33" fill="none" xmlns="http://www.w3.org/2000/svg"><path d="M2.142 22.56c.74.28 1.44.49 2.1.63.66.12 1.43.18 2.31.18 1.5 0 2.66-.26 3.48-.78.82-.52 1.23-1.35 1.23-2.49 0-2.1-1.43-3.15-4.29-3.15-.8 0-1.61.07-2.43.21-.8.12-1.52.28-2.16.48L2.982 6h12.24v3.87h-8.7l-.24 3.93c.5-.1.94-.17 1.32-.21.38-.04.82-.06 1.32-.06 1.22 0 2.27.18 3.15.54.9.34 1.64.81 2.22 1.41.6.58 1.04 1.27 1.32 2.07.28.78.42 1.61.42 2.49 0 1.02-.16 1.98-.48 2.88a5.92 5.92 0 01-1.53 2.31c-.7.66-1.61 1.18-2.73 1.56-1.12.38-2.47.57-4.05.57-.76 0-1.58-.07-2.46-.21-.86-.12-1.74-.33-2.64-.63v-3.96zm16.822 7.89c1-.32 1.76-.73 2.28-1.23.54-.48.9-1.1 1.08-1.86-1.04 0-1.77-.26-2.19-.78-.42-.52-.63-1.13-.63-1.83 0-.7.24-1.29.72-1.77.5-.5 1.23-.75 2.19-.75.88 0 1.62.3 2.22.9.6.58.9 1.5.9 2.76 0 .8-.12 1.57-.36 2.31-.22.74-.57 1.42-1.05 2.04-.46.62-1.04 1.15-1.74 1.59-.68.46-1.48.8-2.4 1.02l-1.02-2.4zm9.595-8.13c.98.4 1.89.67 2.73.81.86.14 1.7.21 2.52.21 1.46 0 2.54-.23 3.24-.69.7-.48 1.05-1.13 1.05-1.95 0-.98-.37-1.66-1.11-2.04-.72-.4-1.72-.6-3-.6h-3v-3.63h2.61c1.32 0 2.31-.19 2.97-.57.68-.38 1.02-1.02 1.02-1.92 0-.72-.3-1.28-.9-1.68-.6-.42-1.54-.63-2.82-.63-.96 0-1.87.09-2.73.27-.84.16-1.58.38-2.22.66V6.57c.96-.34 1.93-.58 2.91-.72.98-.14 2.01-.21 3.09-.21 1.4 0 2.58.15 3.54.45.96.3 1.73.71 2.31 1.23.58.5 1 1.09 1.26 1.77.26.66.39 1.37.39 2.13 0 1.32-.37 2.38-1.11 3.18-.74.8-1.78 1.36-3.12 1.68v.06c1.7.28 2.91.85 3.63 1.71.72.86 1.08 1.89 1.08 3.09 0 2-.72 3.57-2.16 4.71-1.42 1.14-3.51 1.71-6.27 1.71-.8 0-1.72-.07-2.76-.21a17.49 17.49 0 01-3.15-.75v-4.08zm26.003-4.41l-2.04-3.48h-.45l-2.04 3.48-2.73-1.83 2.88-3.06-.12-.39-4.02-.78.99-3.21 3.81 1.68.36-.24-.51-4.08h3.3l-.48 4.11.33.21 3.75-1.68.96 3.21-3.99.78-.12.42 2.85 3.03-2.73 1.83zM73.757 27h-4.5V10.92l-3.54 2.31-1.89-3.21L70.037 6h3.72v21zm14.333-3.48c1.22 0 2.1-.53 2.64-1.59.56-1.08.84-2.87.84-5.37 0-2.54-.28-4.35-.84-5.43-.56-1.1-1.51-1.65-2.85-1.65-1.24 0-2.15.55-2.73 1.65-.56 1.1-.84 2.91-.84 5.43 0 2.52.3 4.31.9 5.37.6 1.06 1.56 1.59 2.88 1.59zm-.12 3.84c-2.74 0-4.84-.87-6.3-2.61-1.44-1.74-2.16-4.49-2.16-8.25s.73-6.51 2.19-8.25c1.48-1.74 3.54-2.61 6.18-2.61 2.9 0 5.03.88 6.39 2.64 1.36 1.74 2.04 4.48 2.04 8.22 0 1.92-.19 3.57-.57 4.95-.36 1.36-.9 2.48-1.62 3.36-.7.88-1.57 1.53-2.61 1.95-1.02.4-2.2.6-3.54.6zM100.253 12h-1.5V6.64l-1.18.77-.63-1.07L99.012 5h1.24v7zm2.417-1.48c.247.093.48.163.7.21.22.04.477.06.77.06.5 0 .887-.087 1.16-.26.273-.173.41-.45.41-.83 0-.7-.477-1.05-1.43-1.05a4.8 4.8 0 00-.81.07 4.8 4.8 0 00-.72.16l.2-3.88h4.08v1.29h-2.9l-.08 1.31a4.89 4.89 0 01.44-.07c.127-.013.273-.02.44-.02.407 0 .757.06 1.05.18.3.113.547.27.74.47.2.193.347.423.44.69.093.26.14.537.14.83 0 .34-.053.66-.16.96-.107.293-.277.55-.51.77-.233.22-.537.393-.91.52s-.823.19-1.35.19c-.253 0-.527-.023-.82-.07-.287-.04-.58-.11-.88-.21v-1.32z" fill="#6CACE4"/></svg>