<svg width="34" height="32" fill="none" xmlns="http://www.w3.org/2000/svg"><path d="M21.494 11h-1.651V8.56h-2.538V11h-1.651V4.807h1.651v2.344h2.538V4.807h1.651V11zM5.858 28.91a6.27 6.27 0 01-.74.28c-.324.105-.766.158-1.324.158-.6 0-1.11-.077-1.53-.23a2.631 2.631 0 01-1.032-.657 2.786 2.786 0 01-.595-1.032 4.726 4.726 0 01-.182-1.36 3.9 3.9 0 01.206-1.311c.138-.389.34-.72.607-.996.275-.283.62-.498 1.032-.643.413-.154.895-.231 1.445-.231.535 0 .96.048 1.275.145.316.09.559.166.729.231l-.292 1.287a6.74 6.74 0 00-.582-.17 3.482 3.482 0 00-.85-.085c-.583 0-1.037.134-1.36.401-.324.267-.486.704-.486 1.312 0 1.279.688 1.918 2.064 1.918.235 0 .47-.024.704-.073.235-.048.446-.117.632-.206l.28 1.263zm7.853-5.889l.753 6.193h-1.566l-.316-3.133-.048-.886h-.037l-.218.886-1.069 3.133h-1.202l-1.069-3.133-.218-.886h-.037l-.048.886-.316 3.133H6.741l.753-6.193h1.712l1.397 4.275h.049l1.36-4.275h1.7zm11.249 2.514l-.826-1.409h-.182l-.826 1.409-1.105-.74 1.166-1.24-.049-.157-1.627-.316.4-1.3 1.543.68.145-.096-.206-1.652h1.336l-.195 1.664.134.085 1.518-.68.388 1.3-1.615.315-.048.17 1.153 1.226-1.105.741zm7.988 3.376c-.17.08-.417.174-.74.279-.324.105-.766.158-1.324.158-.6 0-1.11-.077-1.53-.23a2.631 2.631 0 01-1.032-.657 2.786 2.786 0 01-.595-1.032 4.727 4.727 0 01-.183-1.36c0-.485.07-.923.207-1.311.137-.389.34-.72.607-.996.275-.283.62-.498 1.032-.643.413-.154.895-.231 1.445-.231.534 0 .96.048 1.275.145.316.09.559.166.729.231l-.292 1.287a6.744 6.744 0 00-.582-.17 3.483 3.483 0 00-.85-.085c-.583 0-1.037.134-1.36.401-.324.267-.486.704-.486 1.312 0 1.279.688 1.918 2.064 1.918.235 0 .47-.024.704-.073a2.75 2.75 0 00.632-.206l.279 1.263zm-12.015-6.34h-4.31v-1.2l.98-.769c.313-.23.583-.439.813-.627.23-.194.418-.377.565-.548a1.87 1.87 0 00.336-.503c.076-.165.114-.335.114-.512 0-.294-.094-.521-.282-.68-.183-.165-.468-.247-.857-.247-.282 0-.547.035-.795.106a3.7 3.7 0 00-.68.265V16.61c.342-.13.66-.215.954-.256.3-.047.592-.07.875-.07.388 0 .72.047.997.14.283.095.516.225.698.39.183.159.318.347.406.565.089.217.133.45.133.697 0 .3-.053.583-.16.848a3.097 3.097 0 01-.458.777 5.576 5.576 0 01-.716.742c-.282.241-.6.486-.953.733l-.327.212v.009h2.667v1.174z" fill="#6CACE4"/><path stroke="#6CACE4" stroke-width="1.214" d="M2.429 15.179h30.357"/></svg>