<svg width="72" height="119" fill="none" xmlns="http://www.w3.org/2000/svg"><path d="M41.548 40.938a7.46 7.46 0 01-11.079-9.992 7.46 7.46 0 0110.533-.537 7.459 7.459 0 01.546 10.53z" fill="url(#paint0_radial_274_9771)"/><path d="M14.662 7.59A35.61 35.61 0 003.428 21.857c2.949.727 11.78 3.6 15.83 14.538 1.219-.397 3.845-1.927 5.668-7.838 2.444-7.912 7.08-15.523 13.091-18.079-5.995-5.93-13.894-7.328-23.355-2.888z" fill="url(#paint1_linear_274_9771)"/><path d="M63.342 13.31l.001-.002C56.834 5.454 47.006.452 36.008.452a35.327 35.327 0 00-21.347 7.137C27.796 1.426 37.92 6.51 44.118 19.36c9.875 1.771 16.58-3.142 19.224-6.05z" fill="url(#paint2_linear_274_9771)"/><path d="M22.132 68.604A35.607 35.607 0 0040.104 71.2c-.845-2.917-2.771-12.002 4.675-20.98-.953-.856-3.592-2.366-9.621-.99-8.075 1.84-16.983 1.63-22.202-2.298-2.139 8.158.601 15.697 9.176 21.672z" fill="url(#paint3_linear_274_9771)"/><path d="M2.746 23.582h-.002C-.803 33.145-.221 44.16 5.278 53.683a35.33 35.33 0 0016.854 14.92C10.228 60.31 9.569 49 17.597 37.207c-3.404-9.437-11.012-12.79-14.85-13.625z" fill="url(#paint4_linear_274_9771)"/><path d="M70.878 31.423a35.614 35.614 0 00-6.737-16.863c-2.105 2.19-9.008 8.4-20.505 6.44-.266 1.254-.254 4.294 3.953 8.828 5.63 6.073 9.903 13.893 9.11 20.378 8.134-2.227 13.293-8.37 14.18-18.784z" fill="url(#paint5_linear_274_9771)"/><path d="M41.94 70.93v.002c10.056-1.71 19.302-7.722 24.8-17.246a35.335 35.335 0 004.494-22.058c-1.23 14.457-10.695 20.683-24.922 19.627-6.47 7.667-5.57 15.932-4.373 19.674z" fill="url(#paint6_linear_274_9771)"/><path d="M70.423 103.307v-.699H.5v.699h69.923zm-54.447-7.693h-1.363v-4.876h-5.36v4.876H7.89v-10.6h1.363v4.483h5.36v-4.482h1.363v10.6zm12.294 0h-1.362v-8.54l-5.149 8.54h-1.544v-10.6h1.363v8.54l5.148-8.54h1.545v10.6zm12.295 0h-1.363v-8.54l-5.149 8.54H32.51v-10.6h1.363v8.54l5.148-8.54h1.545v10.6zm9.962-2.832H46l-1.03 2.832h-1.377l4.043-10.6h1.363l3.967 10.6H51.54l-1.014-2.832zm-4.089-1.241h3.65l-1.772-4.982h-.06l-1.818 4.982zm10.916 4.073h-1.363v-10.6h3.12c2.407 0 3.921 1 3.921 3.302 0 2.195-1.514 3.392-4.043 3.392h-1.635v3.906zm0-5.178h1.635c1.68 0 2.59-.682 2.59-2.09 0-1.454-.91-2.06-2.59-2.06h-1.635v4.15zM5.8 118.779H4.71v-8.488h2.498c1.928 0 3.14.8 3.14 2.643 0 1.758-1.212 2.716-3.237 2.716H5.8v3.129zm0-4.147h1.31c1.346 0 2.073-.546 2.073-1.673 0-1.164-.727-1.65-2.073-1.65H5.8v3.323zm6.85-.098c0-2.716 1.563-4.365 3.806-4.365 2.523 0 3.88 1.795 3.88 4.365 0 2.886-1.624 4.366-3.843 4.366-2.352 0-3.844-1.674-3.844-4.366zm6.523 0c0-2.328-1.043-3.346-2.716-3.346-1.492 0-2.644 1.079-2.644 3.346 0 2.232 1.116 3.347 2.789 3.347 1.589 0 2.57-1.152 2.57-3.347zm9.797 4.014c-.461.218-1.116.352-1.856.352-2.643 0-4.231-1.65-4.231-4.256 0-2.886 1.625-4.475 4.159-4.475.97 0 1.54.17 1.94.328l-.206.958a4.755 4.755 0 00-1.625-.267c-2.013 0-3.104 1.164-3.104 3.346 0 2.11 1.224 3.347 3.213 3.347.533 0 1.103-.097 1.528-.303l.182.97zm7.624-2.037H32.97l-.825 2.268h-1.103l3.238-8.488h1.09l3.177 8.488h-1.14l-.812-2.268zm-3.274-.994h2.923l-1.419-3.989h-.049l-1.455 3.989zm9.677 3.262h-1.092v-7.47h-2.51v-1.018h6.112v1.018h-2.51v7.47zm4.327-4.245c0-2.716 1.565-4.365 3.808-4.365 2.522 0 3.88 1.795 3.88 4.365 0 2.886-1.625 4.366-3.844 4.366-2.352 0-3.844-1.674-3.844-4.366zm6.523 0c0-2.328-1.042-3.346-2.715-3.346-1.492 0-2.644 1.079-2.644 3.346 0 2.232 1.116 3.347 2.789 3.347 1.589 0 2.57-1.152 2.57-3.347zm12.368 4.245h-1.091l-.522-6.633-2.146 6.633h-1.14l-2.134-6.609-.533 6.609h-1.091l.727-8.488h1.334l2.292 7.299 2.243-7.299h1.334l.727 8.488z" fill="#414042"/><defs><linearGradient id="paint1_linear_274_9771" x1="10.841" y1="30.929" x2="28.488" y2="3.756" gradientUnits="userSpaceOnUse"><stop stop-color="#CCCDCF"/><stop offset=".247" stop-color="#AEB1B3"/><stop offset=".792" stop-color="#6A6B6E"/><stop offset="1" stop-color="#4C4C4E"/></linearGradient><linearGradient id="paint2_linear_274_9771" x1="17.884" y1="-.388" x2="61.721" y2="17.323" gradientUnits="userSpaceOnUse"><stop stop-color="#CCCDCF"/><stop offset=".247" stop-color="#AEB1B3"/><stop offset=".792" stop-color="#6A6B6E"/><stop offset="1" stop-color="#4C4C4E"/></linearGradient><linearGradient id="paint3_linear_274_9771" x1="44.254" y1="60.243" x2="11.899" y2="58.547" gradientUnits="userSpaceOnUse"><stop stop-color="#CCCDCF"/><stop offset=".247" stop-color="#AEB1B3"/><stop offset=".792" stop-color="#6A6B6E"/><stop offset="1" stop-color="#4C4C4E"/></linearGradient><linearGradient id="paint4_linear_274_9771" x1="13.612" y1="69.802" x2="7.032" y2="22.979" gradientUnits="userSpaceOnUse"><stop stop-color="#CCCDCF"/><stop offset=".247" stop-color="#AEB1B3"/><stop offset=".792" stop-color="#6A6B6E"/><stop offset="1" stop-color="#4C4C4E"/></linearGradient><linearGradient id="paint5_linear_274_9771" x1="52.577" y1="16.445" x2="67.286" y2="45.315" gradientUnits="userSpaceOnUse"><stop stop-color="#CCCDCF"/><stop offset=".247" stop-color="#AEB1B3"/><stop offset=".792" stop-color="#6A6B6E"/><stop offset="1" stop-color="#4C4C4E"/></linearGradient><linearGradient id="paint6_linear_274_9771" x1="76.532" y1="38.408" x2="39.273" y2="67.518" gradientUnits="userSpaceOnUse"><stop stop-color="#CCCDCF"/><stop offset=".247" stop-color="#AEB1B3"/><stop offset=".792" stop-color="#6A6B6E"/><stop offset="1" stop-color="#4C4C4E"/></linearGradient><radialGradient id="paint0_radial_274_9771" cx="0" cy="0" r="1" gradientUnits="userSpaceOnUse" gradientTransform="translate(33.613 31.793) scale(10.4939)"><stop offset=".029" stop-color="#DCDDDE"/><stop offset=".134" stop-color="#D1D2D4"/><stop offset=".329" stop-color="#B4B6B9"/><stop offset=".46" stop-color="#9FA1A4"/><stop offset=".557" stop-color="#8D8F91"/><stop offset=".755" stop-color="#6C6D70"/><stop offset=".909" stop-color="#565659"/><stop offset="1" stop-color="#4D4D4F"/></radialGradient></defs></svg>