<svg width="175" height="81" fill="none" xmlns="http://www.w3.org/2000/svg"><path d="M46.074 45.763a8.37 8.37 0 01-11.824.604c-3.434-3.096-3.71-8.394-.616-11.827 3.099-3.434 8.394-3.7 11.827-.605 3.434 3.099 3.71 8.394.613 11.828z" fill="url(#paint0_radial_1550_9031)"/><path d="M15.884 8.312A39.982 39.982 0 003.27 24.332c3.312.816 13.227 4.044 17.777 16.327 1.37-.447 4.32-2.166 6.364-8.802 2.744-8.886 7.95-17.431 14.7-20.302-6.734-6.66-15.603-8.228-26.227-3.243z" fill="url(#paint1_linear_1550_9031)"/><path d="M70.55 14.738c0-.003 0-.003 0 0C63.242 5.916 52.205.298 39.857.298a39.677 39.677 0 00-23.973 8.014c14.75-6.92 26.119-1.212 33.078 13.22 11.088 1.988 18.619-3.53 21.588-6.794z" fill="url(#paint2_linear_1550_9031)"/><path d="M24.273 76.83a39.966 39.966 0 0020.182 2.916c-.948-3.276-3.113-13.478 5.25-23.56-1.072-.96-4.033-2.656-10.804-1.11-9.066 2.067-19.071 1.83-24.932-2.581-2.404 9.159.673 17.625 10.304 24.335z" fill="url(#paint3_linear_1550_9031)"/><path d="M2.502 26.273H2.5C-1.482 37.01-.83 49.382 5.345 60.075A39.664 39.664 0 0024.273 76.83c-13.368-9.314-14.108-22.016-5.093-35.26C15.356 30.974 6.813 27.209 2.502 26.273z" fill="url(#paint4_linear_1550_9031)"/><path d="M79.411 35.305a39.98 39.98 0 00-7.567-18.936c-2.362 2.46-10.115 9.434-23.025 7.232-.298 1.409-.284 4.823 4.44 9.913 6.322 6.819 11.122 15.6 10.23 22.884 9.134-2.5 14.927-9.398 15.922-21.093z" fill="url(#paint5_linear_1550_9031)"/><path d="M46.516 79.44c11.293-1.919 21.675-8.67 27.85-19.364a39.666 39.666 0 005.045-24.769c-1.383 16.234-12.01 23.228-27.985 22.041-7.266 8.608-6.254 17.887-4.91 22.091z" fill="url(#paint6_linear_1550_9031)"/><path d="M92.678 8.666h-.796V71.64h.796V8.667zm19.13 28.05h-1.555v-1.38a7.587 7.587 0 01-2.139-.355 5.073 5.073 0 01-1.71-.925 4.211 4.211 0 01-1.139-1.501c-.276-.6-.413-1.297-.413-2.09 0-.759.14-1.437.421-2.03a4.385 4.385 0 011.167-1.51 5.428 5.428 0 011.718-.959 7.027 7.027 0 012.098-.371v-1.347h1.555v1.347a7.7 7.7 0 012.152.354c.66.214 1.234.523 1.718.934.483.408.86.914 1.13 1.51.27.599.405 1.29.405 2.072s-.138 1.474-.413 2.073a4.304 4.304 0 01-1.139 1.51 5.052 5.052 0 01-1.718.933 7.641 7.641 0 01-2.132.355v1.38h-.006zm-1.552-9.707c-1.175.045-2.092.357-2.753.934-.661.576-.992 1.417-.992 2.522 0 1.083.334 1.918 1.001 2.503.666.588 1.583.903 2.744.95V27.01zm1.552 6.91c1.187-.045 2.107-.355 2.765-.926.655-.57.984-1.414.984-2.53 0-1.14-.326-1.989-.976-2.548-.649-.56-1.575-.86-2.773-.906v6.91zm10.171-4.354h5.059c-.033-.655-.157-1.223-.371-1.701a3.35 3.35 0 00-.872-1.192 3.638 3.638 0 00-1.304-.709 5.572 5.572 0 00-1.648-.233c-.346 0-.754.028-1.226.087a5.2 5.2 0 00-1.347.346l-.293-1.26c.298-.16.734-.304 1.305-.433a8.247 8.247 0 011.789-.191c.863 0 1.645.118 2.348.354a4.473 4.473 0 011.788 1.097c.489.495.866 1.125 1.13 1.89.265.764.397 1.672.397 2.719 0 .99-.127 1.878-.38 2.668-.253.788-.635 1.457-1.147 2.002-.512.549-1.147.968-1.909 1.26-.76.293-1.648.442-2.661.442-.632 0-1.155-.045-1.571-.138a12.565 12.565 0 01-1.055-.276l.292-1.364c.369.127.765.214 1.193.26.424.044.807.07 1.139.07 1.324 0 2.381-.352 3.177-1.055.793-.703 1.209-1.78 1.243-3.228h-5.078v-1.415h.002zm20.258 6.977h-1.555v-9.74l-5.871 9.74h-1.76V24.453h1.555v9.74l5.871-9.74h1.76v12.089z" fill="#414042"/><path d="M106.094 55.107h-1.245v-9.68h2.848c.554 0 1.049.06 1.488.172.438.116.812.298 1.127.546.313.25.554.562.72.939.166.377.248.83.248 1.355 0 1.004-.326 1.772-.976 2.303-.65.532-1.555.796-2.716.796h-1.494v3.569zm0-4.73h1.494c.773 0 1.361-.158 1.763-.47.402-.312.601-.793.601-1.437 0-.663-.199-1.141-.601-1.437-.402-.295-.99-.441-1.763-.441h-1.494v3.785zm12.196 4.868c-.672 0-1.28-.116-1.819-.346a3.842 3.842 0 01-1.384-.99 4.343 4.343 0 01-.877-1.57c-.203-.618-.304-1.307-.304-2.075 0-.773.107-1.468.318-2.08a4.556 4.556 0 01.891-1.564c.383-.427.841-.76 1.375-.99a4.388 4.388 0 011.758-.346c.72 0 1.352.124 1.901.366a3.851 3.851 0 011.383 1.023c.374.44.658.965.849 1.578.194.613.29 1.285.29 2.01 0 .822-.11 1.541-.332 2.166-.222.621-.526 1.142-.914 1.555a3.747 3.747 0 01-1.383.94 4.57 4.57 0 01-1.752.323zm.126-1.162c.914 0 1.629-.32 2.152-.962.52-.64.781-1.591.781-2.854 0-.663-.07-1.234-.213-1.715-.144-.478-.349-.875-.616-1.19a2.422 2.422 0 00-.976-.691 3.595 3.595 0 00-1.293-.222c-.425 0-.822.078-1.19.236a2.53 2.53 0 00-.953.706 3.45 3.45 0 00-.636 1.189c-.157.478-.236 1.04-.236 1.687 0 .636.076 1.195.228 1.673.152.481.365.878.644 1.195.275.318.61.557 1.001.712a3.47 3.47 0 001.307.236zm14.103.762a3.84 3.84 0 01-.939.298 6.16 6.16 0 01-1.176.105c-.756 0-1.431-.113-2.025-.338a4.117 4.117 0 01-1.512-.976 4.26 4.26 0 01-.954-1.527c-.222-.593-.331-1.265-.331-2.01 0-.821.109-1.55.331-2.185.223-.636.54-1.17.954-1.603.416-.433.914-.76 1.501-.981.585-.223 1.238-.332 1.957-.332.554 0 1.004.04 1.347.118.346.079.633.163.864.256l-.237 1.09a4.903 4.903 0 00-.925-.235 6.488 6.488 0 00-.925-.07c-1.153 0-2.03.323-2.635.967-.604.644-.905 1.594-.905 2.848 0 .6.084 1.136.256 1.611.171.476.413.875.725 1.204a3.1 3.1 0 001.148.748c.452.172.964.256 1.535.256.304 0 .61-.028.919-.082.31-.056.582-.143.824-.261l.203 1.1zm8.697-2.322h-4.133l-.939 2.587h-1.26l3.692-9.68h1.246l3.622 9.68h-1.3l-.928-2.587zm-3.731-1.137h3.332l-1.617-4.55h-.056l-1.659 4.55zm11.034 3.721h-1.245v-8.518h-2.863v-1.161h6.968v1.161h-2.863v8.518h.003zm9.319.138c-.672 0-1.279-.116-1.819-.346a3.85 3.85 0 01-1.384-.99 4.343 4.343 0 01-.877-1.57c-.203-.618-.304-1.307-.304-2.075 0-.773.107-1.468.318-2.08a4.556 4.556 0 01.891-1.564c.383-.427.841-.76 1.375-.99a4.391 4.391 0 011.758-.346c.72 0 1.352.124 1.901.366a3.851 3.851 0 011.383 1.023c.374.44.658.965.85 1.578.194.613.289 1.285.289 2.01 0 .822-.11 1.541-.332 2.166-.222.621-.526 1.142-.914 1.555a3.747 3.747 0 01-1.383.94 4.566 4.566 0 01-1.752.323zm.127-1.162c.913 0 1.628-.32 2.151-.962.52-.64.782-1.591.782-2.854 0-.663-.071-1.234-.214-1.715-.144-.478-.349-.875-.616-1.19a2.422 2.422 0 00-.976-.691 3.59 3.59 0 00-1.293-.222c-.425 0-.821.078-1.19.236a2.53 2.53 0 00-.953.706 3.45 3.45 0 00-.636 1.189c-.157.478-.236 1.04-.236 1.687 0 .636.076 1.195.228 1.673.152.481.366.878.644 1.195.275.318.61.557 1.001.712.391.157.827.236 1.308.236zM175 55.107h-1.246l-.593-7.565-2.447 7.565h-1.299l-2.432-7.536-.608 7.536h-1.245l.829-9.68h1.521l2.613 8.324 2.559-8.323h1.521l.827 9.679z" fill="#035FA2"/><defs><linearGradient id="paint1_linear_1550_9031" x1="11.593" y1="34.521" x2="31.409" y2="4.006" gradientUnits="userSpaceOnUse"><stop stop-color="#4495D1"/><stop offset="1" stop-color="#15256D"/></linearGradient><linearGradient id="paint2_linear_1550_9031" x1="19.503" y1="-.646" x2="68.729" y2="19.242" gradientUnits="userSpaceOnUse"><stop stop-color="#4495D1"/><stop offset="1" stop-color="#15256D"/></linearGradient><linearGradient id="paint3_linear_1550_9031" x1="49.108" y1="67.453" x2="12.777" y2="65.549" gradientUnits="userSpaceOnUse"><stop stop-color="#4495D1"/><stop offset="1" stop-color="#15256D"/></linearGradient><linearGradient id="paint4_linear_1550_9031" x1="14.702" y1="78.187" x2="7.311" y2="25.608" gradientUnits="userSpaceOnUse"><stop stop-color="#4495D1"/><stop offset="1" stop-color="#15256D"/></linearGradient><linearGradient id="paint5_linear_1550_9031" x1="58.87" y1="18.48" x2="75.388" y2="50.898" gradientUnits="userSpaceOnUse"><stop stop-color="#4495D1"/><stop offset="1" stop-color="#15256D"/></linearGradient><linearGradient id="paint6_linear_1550_9031" x1="85.37" y1="42.913" x2="43.532" y2="75.6" gradientUnits="userSpaceOnUse"><stop stop-color="#4495D1"/><stop offset="1" stop-color="#15256D"/></linearGradient><radialGradient id="paint0_radial_1550_9031" cx="0" cy="0" r="1" gradientUnits="userSpaceOnUse" gradientTransform="translate(37.156 35.472) scale(11.7842)"><stop stop-color="#4495D1"/><stop offset="1" stop-color="#15256D"/></radialGradient></defs></svg>