<svg width="170" height="78" fill="none" xmlns="http://www.w3.org/2000/svg"><path d="M44.758 44.602a8.131 8.131 0 01-11.486.588c-3.336-3.008-3.604-8.154-.599-11.49 3.01-3.335 8.154-3.595 11.49-.587 3.335 3.01 3.603 8.154.595 11.49z" fill="url(#paint0_radial_1550_9726)"/><path d="M15.43 8.222A38.839 38.839 0 003.178 23.784c3.217.792 12.85 3.928 17.27 15.86 1.33-.434 4.195-2.103 6.18-8.55 2.667-8.632 7.723-16.933 14.282-19.723-6.542-6.468-15.158-7.992-25.478-3.15z" fill="url(#paint1_linear_1550_9726)"/><path d="M68.535 14.464c0-.003 0-.003 0 0C61.435 5.894 50.713.437 38.718.437a38.543 38.543 0 00-23.287 7.785c14.328-6.723 25.372-1.177 32.133 12.842 10.77 1.93 18.086-3.429 20.97-6.6z" fill="url(#paint2_linear_1550_9726)"/><path d="M23.58 74.782a38.824 38.824 0 0019.605 2.833c-.921-3.183-3.024-13.093 5.1-22.886-1.041-.935-3.918-2.582-10.495-1.08-8.807 2.008-18.527 1.779-24.22-2.507-2.335 8.897.653 17.122 10.01 23.64z" fill="url(#paint3_linear_1550_9726)"/><path d="M2.43 25.67h-.002C-1.44 36.1-.806 48.117 5.193 58.506a38.532 38.532 0 0018.386 16.275C10.593 65.735 9.875 53.396 18.633 40.53 14.917 30.235 6.618 26.578 2.431 25.67z" fill="url(#paint4_linear_1550_9726)"/><path d="M77.142 34.443a38.839 38.839 0 00-7.35-18.395c-2.295 2.39-9.827 9.165-22.368 7.026-.29 1.369-.276 4.685 4.313 9.63 6.141 6.624 10.804 15.155 9.938 22.23 8.873-2.429 14.5-9.13 15.467-20.49z" fill="url(#paint5_linear_1550_9726)"/><path d="M45.187 77.317c10.97-1.863 21.056-8.422 27.055-18.81a38.532 38.532 0 004.9-24.061c-1.344 15.77-11.667 22.564-27.185 21.41-7.06 8.363-6.076 17.377-4.77 21.461z" fill="url(#paint6_linear_1550_9726)"/><path d="M90.03 8.566h-.773V69.74h.773V8.566zm16.808 27.079h-1.51V25.311h-3.472v-1.41h8.454v1.41h-3.472v10.334zm6.993 0V23.902h3.573c2.735 0 3.775 1.19 3.775 2.953 0 1.376-.773 2.349-2.248 2.668v.033c1.661.235 2.549 1.325 2.549 2.751 0 1.762-1.191 3.338-4.177 3.338h-3.472zm1.511-6.676h1.612c2.013 0 2.718-.855 2.718-2.03 0-1.04-.656-1.628-2.467-1.628h-1.863v3.658zm0 5.267h2.062c1.628 0 2.467-.637 2.467-1.912 0-1.476-.94-2.082-2.803-2.082h-1.729v3.994h.003zm11.205-5.368h4.917c-.117-2.532-1.762-3.723-4.075-3.723-.672 0-1.678.084-2.5.42l-.284-1.224c.571-.303 1.811-.603 3.002-.603 3.371 0 5.502 1.81 5.502 5.89 0 3.84-1.981 6.19-5.923 6.19-1.223 0-1.996-.22-2.551-.402l.284-1.325c.721.235 1.628.32 2.265.32 2.567 0 4.228-1.342 4.294-4.16h-4.934v-1.383h.003zm19.177 6.777h-1.511V25.311h-4.026c-.05 6.728-.336 10.468-3.221 10.468-.32 0-.454-.033-.672-.101v-1.459c.183.05.303.05.486.05 1.224 0 1.795-1.56 1.88-9.01l.016-1.357h7.045v11.743h.003z" fill="#414042"/><path d="M103.063 53.68h-1.21v-9.405h2.767c2.136 0 3.48.887 3.48 2.928 0 1.948-1.344 3.01-3.587 3.01h-1.45v3.467zm0-4.595h1.45c1.492 0 2.298-.604 2.298-1.855 0-1.29-.806-1.827-2.298-1.827h-1.45v3.682zm7.589-.107c0-3.01 1.731-4.835 4.217-4.835 2.795 0 4.3 1.99 4.3 4.835 0 3.2-1.8 4.836-4.259 4.836-2.606 0-4.258-1.852-4.258-4.836zm7.228 0c0-2.578-1.156-3.706-3.011-3.706-1.652 0-2.928 1.196-2.928 3.706 0 2.473 1.235 3.707 3.089 3.707 1.762 0 2.85-1.275 2.85-3.707zm10.855 4.448c-.511.243-1.235.39-2.054.39-2.928 0-4.688-1.827-4.688-4.715 0-3.196 1.801-4.958 4.609-4.958 1.073 0 1.707.189 2.15.364l-.23 1.062a5.246 5.246 0 00-1.8-.295c-2.229 0-3.439 1.29-3.439 3.707 0 2.338 1.357 3.707 3.559 3.707.59 0 1.224-.106 1.694-.336l.199 1.074zm8.449-2.256h-4.015l-.912 2.512h-1.224l3.586-9.405h1.211l3.518 9.405h-1.262l-.902-2.513zm-3.627-1.104h3.237l-1.571-4.42h-.055l-1.611 4.42zm10.719 3.614h-1.21v-8.274h-2.781v-1.129h6.772v1.129h-2.781v8.274zm4.794-4.702c0-3.01 1.732-4.835 4.218-4.835 2.794 0 4.299 1.99 4.299 4.835 0 3.2-1.8 4.836-4.259 4.836-2.606 0-4.258-1.852-4.258-4.836zm7.228 0c0-2.578-1.156-3.706-3.01-3.706-1.653 0-2.929 1.196-2.929 3.706 0 2.473 1.235 3.707 3.09 3.707 1.762 0 2.849-1.275 2.849-3.707zM170 53.68h-1.21l-.576-7.349-2.377 7.349h-1.262l-2.366-7.321-.59 7.32h-1.21l.806-9.404h1.478l2.538 8.088 2.485-8.088h1.478L170 53.68z" fill="#035FA2"/><defs><linearGradient id="paint1_linear_1550_9726" x1="11.262" y1="33.682" x2="30.512" y2="4.039" gradientUnits="userSpaceOnUse"><stop stop-color="#4495D1"/><stop offset="1" stop-color="#15256D"/></linearGradient><linearGradient id="paint2_linear_1550_9726" x1="18.946" y1="-.481" x2="66.766" y2="18.84" gradientUnits="userSpaceOnUse"><stop stop-color="#4495D1"/><stop offset="1" stop-color="#15256D"/></linearGradient><linearGradient id="paint3_linear_1550_9726" x1="47.706" y1="65.672" x2="12.412" y2="63.823" gradientUnits="userSpaceOnUse"><stop stop-color="#4495D1"/><stop offset="1" stop-color="#15256D"/></linearGradient><linearGradient id="paint4_linear_1550_9726" x1="14.281" y1="76.1" x2="7.103" y2="25.024" gradientUnits="userSpaceOnUse"><stop stop-color="#4495D1"/><stop offset="1" stop-color="#15256D"/></linearGradient><linearGradient id="paint5_linear_1550_9726" x1="57.188" y1="18.099" x2="73.234" y2="49.591" gradientUnits="userSpaceOnUse"><stop stop-color="#4495D1"/><stop offset="1" stop-color="#15256D"/></linearGradient><linearGradient id="paint6_linear_1550_9726" x1="82.931" y1="41.834" x2="42.288" y2="73.588" gradientUnits="userSpaceOnUse"><stop stop-color="#4495D1"/><stop offset="1" stop-color="#15256D"/></linearGradient><radialGradient id="paint0_radial_1550_9726" cx="0" cy="0" r="1" gradientUnits="userSpaceOnUse" gradientTransform="translate(36.095 34.606) scale(11.4475)"><stop stop-color="#4495D1"/><stop offset="1" stop-color="#15256D"/></radialGradient></defs></svg>