<svg width="173" height="68" fill="none" xmlns="http://www.w3.org/2000/svg"><path fill-rule="evenodd" clip-rule="evenodd" d="M33.54 3.79c-.889 1.95-1.854 3.544-2.144 3.544-.29 0-2.078-.852-3.972-1.893C19.754 1.223 13.877.866 10.126 4.39c-2.381 2.236-3.248 4.729-3.248 9.334 0 4.579.763 8.187 2.646 12.5 1.066 2.444 1.175 3.158.618 4.052-.373.596-.842 1.084-1.043 1.084-.2 0-1.788 1.857-3.527 4.129-6.786 8.86-7.115 16.15-.872 19.335 4.071 2.077 12.793 1.337 17.186-1.458 1.2-.765 1.257-1.133 1.257-8.262 0-6.294-.146-7.582-.934-8.229-.514-.42-2.043-2.476-3.398-4.566-2.036-3.14-2.343-3.944-1.767-4.637 1.238-1.493 9.613-7.267 14.06-9.695 2.383-1.3 4.33-2.591 4.33-2.87 0-.736-.208-.68-4.23 1.145-3.706 1.68-10.76 5.845-14.083 8.315-1.007.749-1.921 1.263-2.031 1.143-.11-.12-1.01-2.587-2-5.483-2.136-6.256-2.203-11.188-.188-13.864 1.089-1.446 1.421-1.541 5.283-1.515 3.518.024 4.675.303 7.922 1.908 2.091 1.034 4.983 2.72 6.425 3.748l2.624 1.868.167-3.078c.092-1.692.092-4.42 0-6.062L35.156.247 33.54 3.791zM75.5 6.218c-.263 1.008-.762 1.117-5.093 1.117h-4.802v20.672h5.029c4.656 0 5.028.083 5.028 1.118 0 1.574 2.78 1.574 3.19 0 .261-.995.763-1.118 4.586-1.118 2.594 0 4.558-.265 4.964-.67.47-.47.67-3.564.67-10.337V7.334H84.11c-4.494 0-4.991-.105-5.256-1.117-.193-.738-.762-1.118-1.676-1.118-.915 0-1.483.38-1.677 1.118zm21.953.28c0 .604-.62.837-2.235.837-1.997 0-2.235.146-2.235 1.364 0 1.171.294 1.387 2.095 1.536l2.096.173.152 9.918.153 9.917h2.768V10.128h1.955c1.714 0 1.956-.173 1.956-1.397s-.242-1.397-1.956-1.397c-1.365 0-1.955-.252-1.955-.838 0-.521-.528-.838-1.397-.838-.87 0-1.397.317-1.397.838zm9.359-.462c-1.781.212-2.096.454-2.096 1.612 0 .99.306 1.363 1.118 1.363.614 0 1.117.136 1.117.302 0 .166-.503 1.288-1.117 2.492-1.723 3.376-1.518 4.47.838 4.47 1.075 0 1.956.094 1.956.208 0 .92-2.486 5.51-3.114 5.751-.439.17-.798.798-.798 1.4 0 .883.326 1.06 1.702.917 1.558-.16 2.007-.752 5.326-7.019l3.624-6.844h-1.68c-1.301 0-1.875.377-2.546 1.676-.477.922-1.238 1.676-1.691 1.676-1.063 0-1.038-.63.118-3.054.919-1.926 1.022-1.975 4.19-1.975 3.094 0 3.249-.067 3.249-1.396 0-1.075-.29-1.398-1.257-1.402-.691-.002-2.514-.1-4.05-.215-1.537-.116-3.737-.099-4.889.038zm15.644 1.391c-1.725 1.936-1.936 2.987-.698 3.463.655.251.838 1.373.838 5.151v4.83l1.816-.418c.998-.231 6.027-.523 11.174-.649 8.836-.215 9.359-.288 9.359-1.32 0-.992-.407-1.092-4.47-1.092-2.607 0-4.47-.233-4.47-.558 0-.326 1.863-.56 4.47-.56 4.065 0 4.47-.098 4.47-1.093 0-.978-.459-1.111-4.33-1.257-2.406-.09-4.33-.411-4.33-.722 0-.31 1.924-.632 4.33-.722 3.871-.146 4.33-.28 4.33-1.257 0-.995-.405-1.094-4.47-1.094-2.607 0-4.47-.233-4.47-.559 0-.326 1.863-.559 4.47-.559 4.097 0 4.47-.093 4.47-1.117 0-.836-.387-1.129-1.537-1.162-4.745-.138-6.244-.287-6.617-.659-.613-.613-4.018-.502-4.417.145-.19.307-1.322.559-2.515.559s-2.324-.252-2.514-.56c-.722-1.168-3.35-.518-4.889 1.21zm26.4 10.524v12.292h10.653c6.274 0 11.096-.237 11.733-.578 1.016-.544 1.081-1.283 1.081-12.292V5.658h-23.467V17.95zm3.352 0v9.498h16.762V8.453h-16.762v9.498zm-26.26-8.38c0 .31 1.49.558 3.353.558 1.862 0 3.352-.248 3.352-.559 0-.31-1.49-.559-3.352-.559-1.863 0-3.353.249-3.353.56zm-81.155 1.446c-2.382.766-4.33 1.635-4.33 1.929 0 .723.349.671 3.91-.582 4.02-1.414 7.903-1.455 9.133-.096 1.468 1.623 1.135 4.97-.896 8.996-.996 1.975-2.063 3.666-2.37 3.756-.307.09-1.366-1.024-2.353-2.475-2.607-3.833-10.218-11.257-10.218-9.967 0 .564 1.411 2.436 3.136 4.161 3.519 3.519 7.48 9.054 7.48 10.452 0 1.247-5.963 7.083-11.594 11.346-2.637 1.997-4.606 3.897-4.6 4.442.006.524.8 1.505 1.766 2.18l1.757 1.228L38.13 44.6c1.384-.983 4.844-4.112 7.688-6.955 2.844-2.843 5.29-5.168 5.433-5.168.143 0 .823 2.274 1.51 5.054 1.727 6.991 1.396 10.16-1.323 12.651-1.765 1.617-2.4 1.85-5.036 1.85-3.948 0-10.317-3.129-15.886-7.805l-4.022-3.377v13.134c0 7.619.216 13.134.514 13.134.522 0 1.281-2.096 3.387-9.358l1.175-4.05 2.105 1.074c5.881 3 15.222 3.697 18.363 1.37 2.327-1.723 3.932-4.401 4.617-7.704.724-3.485-.3-9.529-2.587-15.275-1.377-3.457-1.38-3.506-.335-5.028 3.596-5.235 5.581-12.924 4.067-15.753-.838-1.565-3.812-2.833-6.564-2.799-1.162.015-4.062.654-6.443 1.42zM68.4 17.39v7.264h7.263V10.128H68.4v7.263zm10.616 0v7.264h6.705V10.128h-6.705v7.263zm83.809-6.425c0 .678-.891.838-4.671.838-4.544 0-4.666.035-4.432 1.257.225 1.174.525 1.257 4.532 1.257h4.292l.162 4.61c.153 4.32.091 4.61-.978 4.61-.777 0-1.14.364-1.14 1.148 0 1.02.294 1.129 2.654.977l2.654-.17.28-5.587c.203-4.057.47-5.55.977-5.448 1.102.22.815-1.98-.419-3.213-1.327-1.327-3.911-1.512-3.911-.279zm-68.962 6.342a544.103 544.103 0 01-.627 8.928c-.263 3.18-.192 3.518.706 3.346 1.157-.222 1.67-3.563 1.868-12.146.1-4.39-.024-5.286-.746-5.392-.713-.104-.926.83-1.201 5.264zm7.801 2.687c.396 8.234.748 9.688 2.347 9.688.68 0 .757-.488.417-2.654-.229-1.459-.572-5.416-.762-8.793-.301-5.36-.476-6.165-1.372-6.336-.974-.186-1.007.233-.63 8.095zm24.285-6.794c0 .652.745.838 3.353.838 2.607 0 3.352-.186 3.352-.838 0-.652-.745-.838-3.352-.838-2.608 0-3.353.186-3.353.838zm-14.605 8.38c-2.446 4.945-3.107 5.867-4.206 5.867-1.018 0-1.303.307-1.303 1.397 0 1.206.249 1.396 1.816 1.389 2.069-.01 2.786-.386 3.61-1.894.55-1.006.634-.984 1.553.42 1.355 2.067 4.195 2.125 4.195.085 0-.784-.323-1.396-.737-1.396-.405 0-1.123-.817-1.597-1.816-.826-1.744-.787-1.978.985-5.867l1.844-4.05h-1.629c-1.512 0-1.838.42-4.531 5.866zm45.856-3.263c-.594 1.385-1.079 2.722-1.079 2.97 0 .249-.629.61-1.397.803-.919.23-1.397.74-1.397 1.49 0 .977.302 1.116 2.095.968 1.876-.156 2.223-.441 3.317-2.728 1.979-4.14 2.135-5.343.737-5.708-.999-.261-1.374.102-2.276 2.205zm-31.251-1.485c0 .31 1.49.558 3.353.558 1.862 0 3.352-.248 3.352-.558 0-.311-1.49-.56-3.352-.56-1.863 0-3.353.249-3.353.56zm5.308 4.47c-.19.307-2.593.558-5.341.558-4.623 0-4.995.084-4.995 1.118 0 1.04.372 1.117 5.349 1.117h5.349l-.159 2.933c-.152 2.82-.099 2.94 1.356 3.11 1.486.174 1.514.12 1.514-2.933v-3.11h5.188c4.816 0 5.188-.08 5.188-1.117s-.372-1.118-5.188-1.118c-3.086 0-5.188-.226-5.188-.559 0-.307-.613-.558-1.364-.558-.75 0-1.519.251-1.709.558zM29.474 27.151c-2.097 2.097-2.39 4.427-.69 5.49 2.282 1.429 6.65-1.81 6.65-4.93 0-3.148-3.083-3.437-5.96-.56zm95.586-.542c-.627.956-1.425 1.397-2.528 1.397-1.253 0-1.611.256-1.611 1.148 0 1.02.293 1.13 2.635.978 2.288-.148 2.804-.421 3.911-2.069 1.619-2.409 1.602-2.85-.108-2.85-.86 0-1.731.529-2.299 1.396zm12.283-.512c.187.486.339 1.114.339 1.396 0 1.327 2.332 2.748 4.509 2.748 2.011 0 2.253-.139 2.096-1.204-.118-.795-.654-1.272-1.576-1.402-.768-.108-1.742-.698-2.163-1.31-.945-1.371-3.719-1.57-3.205-.229zM8.925 35.41c-3.197 3.647-4.807 6.892-4.928 9.936-.225 5.656 6.385 6.688 17.05 2.662.846-.32 1.537-.828 1.537-1.13 0-.301-1.194-1.979-2.654-3.726-1.46-1.748-3.77-4.865-5.135-6.926-1.364-2.062-2.665-3.749-2.89-3.749-.225 0-1.566 1.32-2.98 2.933zm57.551 2.22c-.692.987-.87 2.926-.87 9.462 0 4.521.246 8.865.545 9.654l.545 1.433h20.7v-1.916c0-3.28-.898-3.672-8.42-3.672h-6.665V41.975h6.872c4.6 0 7.095-.221 7.543-.67.369-.369.67-1.626.67-2.794v-2.123H77.372c-9.727 0-10.051.037-10.895 1.242zm27.998-.87c-.205.205-.373 5.108-.373 10.896V58.18h1.91c3.666 0 3.676-.02 3.696-7.184l.017-6.505 1.24 1.494c.681.822 2.873 3.89 4.871 6.816l3.632 5.322 2.933.028 2.933.029V36.388h-2.503c-3.003 0-3.025.055-3.225 8.064l-.138 5.55-4.75-6.782-4.749-6.783-2.56-.024c-1.409-.014-2.73.143-2.934.348zm28.495 0c-.205.205-.372 5.108-.372 10.896V58.18h2.202c1.211 0 2.405-.314 2.654-.699.248-.384.577-3.448.731-6.809l.279-6.11 4.75 6.784 4.749 6.785 2.933.024 2.934.025V36.327l-2.654.17-2.654.17-.158 6.566c-.087 3.61-.338 6.556-.559 6.546-.22-.01-2.412-3.02-4.871-6.686l-4.47-6.666-2.56-.02c-1.409-.01-2.729.149-2.934.354zm28.106.779c-.4.745-.554 4.387-.439 10.357.143 7.44.338 9.31 1.015 9.737.461.29 5.301.532 10.755.537l9.918.009v-1.85c0-3.415-.615-3.7-8.381-3.866l-6.984-.151V42.255l6.984-.151c7.766-.167 8.381-.45 8.381-3.867v-1.849h-10.317c-9.843 0-10.345.053-10.932 1.15z" fill="#024FA1"/></svg>