<svg width="10" height="10" fill="none" xmlns="http://www.w3.org/2000/svg"><path d="M1 .446a1 1 0 00-1 1v2.442a1 1 0 001 1h1.388c0 .351-.021.703-.062 1.054a3.509 3.509 0 01-.31.992c-.145.29-.331.517-.56.683-.226.186-.515.28-.867.28v1.55c.579 0 1.085-.125 1.52-.373a3.322 3.322 0 001.085-.992 4.92 4.92 0 00.62-1.458c.127-.57.19-1.152.186-1.736V1.446a1 1 0 00-1-1H1zm6 0a1 1 0 00-1 1v2.442a1 1 0 001 1h1.388c0 .351-.021.703-.062 1.054a3.509 3.509 0 01-.31.992c-.145.29-.331.517-.56.683-.226.186-.515.28-.867.28v1.55c.579 0 1.085-.125 1.52-.373a3.322 3.322 0 001.085-.992 4.92 4.92 0 00.62-1.458c.127-.57.19-1.152.186-1.736V1.446a1 1 0 00-1-1H7z" fill="#ACC2D2"/></svg>