<svg width="15" height="15" fill="none" xmlns="http://www.w3.org/2000/svg"><path d="M14.92 11.825c-.697-1.454-1.884-2.403-3.581-2.826a.836.836 0 00-.73.166L9.2 10.316a.836.836 0 01-.966.068 10.948 10.948 0 01-3.617-3.617.836.836 0 01.068-.967l1.151-1.41a.836.836 0 00.166-.729C5.578 1.964 4.629.776 3.175.081a.823.823 0 00-.74.015C1.702.487 1.002.93.34 1.426a.846.846 0 00-.33.817c.477 2.822 2.002 5.79 4.48 8.267 2.477 2.477 5.444 4.002 8.266 4.478a.846.846 0 00.817-.329c.497-.662.94-1.362 1.33-2.093a.823.823 0 00.016-.74v-.001z" fill="#025EA1"/></svg>