<svg width="24" height="22" fill="none" xmlns="http://www.w3.org/2000/svg"><g filter="url(#filter0_d_92_2683)"><path d="M3.586 1.586A2 2 0 003 3v1c0 8.284 6.716 15 15 15h1a2 2 0 002-2v-3.279a1 1 0 00-.684-.949l-4.493-1.498a1 1 0 00-1.21.502l-1.13 2.257a11.042 11.042 0 01-5.516-5.516l2.257-1.13a1 1 0 00.502-1.21L9.228 1.684A1 1 0 008.28 1H5a2 2 0 00-1.414.586z" stroke="#080515" stroke-width="2" stroke-linecap="round" stroke-linejoin="round" shape-rendering="crispEdges"/></g><defs><filter id="filter0_d_92_2683" x="-2" y="0" width="28" height="28" filterUnits="userSpaceOnUse" color-interpolation-filters="sRGB"><feFlood flood-opacity="0" result="BackgroundImageFix"/><feColorMatrix in="SourceAlpha" values="0 0 0 0 0 0 0 0 0 0 0 0 0 0 0 0 0 0 127 0" result="hardAlpha"/><feOffset dy="4"/><feGaussianBlur stdDeviation="2"/><feComposite in2="hardAlpha" operator="out"/><feColorMatrix values="0 0 0 0 0 0 0 0 0 0 0 0 0 0 0 0 0 0 0.25 0"/><feBlend in2="BackgroundImageFix" result="effect1_dropShadow_92_2683"/><feBlend in="SourceGraphic" in2="effect1_dropShadow_92_2683" result="shape"/></filter></defs></svg>