<svg width="24" height="24" fill="none" xmlns="http://www.w3.org/2000/svg"><g clip-path="url(#clip0_330_570)" fill="#080515" stroke="#080515" stroke-width=".5"><path d="M9.625 4.922a4.312 4.312 0 11-8.625 0 4.312 4.312 0 018.625 0zm-7.188 0a2.875 2.875 0 105.75 0 2.875 2.875 0 00-5.75 0z"/><path d="M13.938 9.235h.718a2.875 2.875 0 012.85 2.498l4.471-1.986A1.438 1.438 0 0124 11.059v10.727a1.437 1.437 0 01-2.021 1.312l-4.472-1.986a2.875 2.875 0 01-2.85 2.498H3.874A2.875 2.875 0 011 20.735V12.11a2.875 2.875 0 012.875-2.875h10.063zm8.624 12.55V11.06l-5.03 2.236v6.253l5.03 2.237v-.002zM2.438 12.11v8.625a1.437 1.437 0 001.438 1.437h10.781a1.438 1.438 0 001.438-1.437V12.11a1.438 1.438 0 00-1.438-1.438H3.875a1.437 1.437 0 00-1.438 1.438z"/><path d="M13.938 9.235a4.313 4.313 0 100-8.625 4.313 4.313 0 000 8.625zm-2.876-4.313a2.875 2.875 0 115.75 0 2.875 2.875 0 01-5.75 0z"/></g><defs><clipPath id="clip0_330_570"><path fill="#fff" d="M0 0h24v24H0z"/></clipPath></defs></svg>